<svg width="24" height="24" xmlns="http://www.w3.org/2000/svg"><g><path style="stroke:#000;stroke-width:1;stroke-dasharray:none;stroke-linecap:butt;stroke-dashoffset:0;stroke-linejoin:miter;stroke-miterlimit:4;fill:none;fill-rule:nonzero;opacity:1" transform="matrix(1.43 0 0 1.43 1.99 1.99)" d="M.96 10.268a3.132 3.132 0 0 0 2.753 2.76c1.07.12 2.167.222 3.287.222s2.218-.102 3.287-.222a3.132 3.132 0 0 0 2.753-2.76c.114-1.063.21-2.155.21-3.268s-.096-2.205-.21-3.269a3.132 3.132 0 0 0-2.753-2.76C9.217.853 8.12.75 7 .75S4.782.852 3.713.972A3.132 3.132 0 0 0 .96 3.732C.846 4.794.75 5.886.75 7s.096 2.205.21 3.268Z" stroke-linecap="round"/><path style="stroke:#000;stroke-width:1;stroke-dasharray:none;stroke-linecap:round;stroke-dashoffset:0;stroke-linejoin:round;stroke-miterlimit:4;fill:none;fill-rule:nonzero;opacity:1" transform="matrix(1.43 0 0 1.43 1.99 1.99)" d="M8.75 6.5a1.75 1.75 0 1 0 0-3.5 1.75 1.75 0 0 0 0 3.5ZM3.713 13.028a3.132 3.132 0 0 1-2.753-2.76 34.391 34.391 0 0 1-.201-2.675A7.88 7.88 0 0 1 1.99 7.5a7.36 7.36 0 0 1 7.32 5.63c-.758.07-1.529.12-2.31.12-1.12 0-2.218-.102-3.287-.222Z" stroke-linecap="round"/><path style="stroke:#000;stroke-width:1;stroke-dasharray:none;stroke-linecap:round;stroke-dashoffset:0;stroke-linejoin:round;stroke-miterlimit:4;fill:none;fill-rule:nonzero;opacity:1" transform="matrix(1.43 0 0 1.43 1.99 1.99)" d="M9.31 13.13c.329-.031.654-.066.977-.102a3.132 3.132 0 0 0 2.753-2.76l.05-.481a7.89 7.89 0 0 0-5.23.353v.066a7.36 7.36 0 0 1 1.45 2.924Z" stroke-linecap="round"/></g></svg>