<svg width="24" height="24" xmlns="http://www.w3.org/2000/svg"><path style="stroke:none;stroke-width:1;stroke-dasharray:none;stroke-linecap:butt;stroke-dashoffset:0;stroke-linejoin:miter;stroke-miterlimit:4;fill:#000;fill-rule:nonzero;opacity:1" transform="matrix(.5 0 0 .5 0 .39)" d="M24 5.445c-1.223 0-2.446.586-3.121 1.756L4.486 35.596C3.136 37.935 4.904 41 7.606 41h32.787c2.701 0 4.47-3.064 3.12-5.404L27.122 7.2c-.675-1.17-1.898-1.756-3.121-1.756zm0 2.907c.194 0 .389.116.523.35l16.393 28.394c.266.463.012.904-.523.904H7.605c-.536 0-.79-.44-.521-.904L23.477 8.7c.134-.233.329-.35.523-.35z"/></svg>