<svg width="22" height="22" xmlns="http://www.w3.org/2000/svg"><g><path style="stroke:none;stroke-width:0.5;stroke-dasharray:none;stroke-linecap:butt;stroke-dashoffset:0;stroke-linejoin:miter;stroke-miterlimit:4;fill:#fff;fill-rule:nonzero;opacity:.35" transform="matrix(.83 0 0 .83 2.04 2.04)" d="M15 19.989H9a6 6 0 0 1-6-6 9 9 0 0 1 9-9 9 9 0 0 1 9 9 6 6 0 0 1-6 6z"/><path style="stroke:none;stroke-width:0.5;stroke-dasharray:none;stroke-linecap:butt;stroke-dashoffset:0;stroke-linejoin:miter;stroke-miterlimit:4;fill:#fff;fill-rule:nonzero;opacity:1" transform="matrix(.83 0 0 .83 2.04 2.04)" d="M24 12.989v2c0 1.1-.9 2-2 2h-1.81c.52-.88.81-1.9.81-3a8.8 8.8 0 0 0-.52-3H22c1.1 0 2 .9 2 2zM3.81 16.989H2c-1.1 0-2-.9-2-2v-2c0-1.1.9-2 2-2h1.52a8.8 8.8 0 0 0-.52 3c0 1.1.29 2.12.81 3z"/><path style="stroke:none;stroke-width:0.5;stroke-dasharray:none;stroke-linecap:butt;stroke-dashoffset:0;stroke-linejoin:miter;stroke-miterlimit:4;fill:#fff;fill-rule:nonzero;opacity:1" transform="matrix(.83 0 0 .83 2.032 2.048)" d="m3.209 12.021-1.919-.564C2.804 6.313 7.007 2.989 12 2.989v2c-4.083 0-7.534 2.761-8.791 7.032z"/><path style="stroke:none;stroke-width:0.5;stroke-dasharray:none;stroke-linecap:butt;stroke-dashoffset:0;stroke-linejoin:miter;stroke-miterlimit:4;fill:#fff;fill-rule:nonzero;opacity:1" transform="matrix(.83 0 0 .83 2.04 2.048)" d="M20.791 12.021C19.534 7.75 16.083 4.989 12 4.989v-2c4.993 0 9.196 3.324 10.709 8.468l-1.918.564z"/><path style="stroke:none;stroke-width:0.5;stroke-dasharray:none;stroke-linecap:butt;stroke-dashoffset:0;stroke-linejoin:miter;stroke-miterlimit:4;fill:#fff;fill-rule:nonzero;opacity:1" transform="matrix(.83 0 0 .83 2.04 2.04)" d="M15 9.989H9a4 4 0 0 0 0 8h6a4 4 0 0 0 0-8zm-5 5.5a1 1 0 0 1-1-1 .5.5 0 0 0-1 0 1 1 0 1 1-2 0c0-1.379 1.122-2.5 2.5-2.5s2.5 1.121 2.5 2.5a1 1 0 0 1-1 1zm7 0a1 1 0 0 1-1-1 .5.5 0 0 0-1 0 1 1 0 1 1-2 0c0-1.379 1.122-2.5 2.5-2.5s2.5 1.121 2.5 2.5a1 1 0 0 1-1 1z"/></g></svg> 