<svg width="24" height="24" xmlns="http://www.w3.org/2000/svg"><path style="stroke:none;stroke-width:1;stroke-dasharray:none;stroke-linecap:butt;stroke-dashoffset:0;stroke-linejoin:miter;stroke-miterlimit:4;fill:#fff;fill-rule:nonzero;opacity:1" transform="matrix(.29 0 0 .29 .4 .69)" d="M38.14 12a4.999 4.999 0 0 0-4.16 2.227l-2.921 4.382-10.516 1.66c-1.059-1.128-2.531-1.878-4.2-1.656h-.003l-6.996.934A5.01 5.01 0 0 0 5 24.5V61c0 2.75 2.25 5 5 5h60c2.75 0 5-2.25 5-5V25.355a5.001 5.001 0 0 0-3.363-4.714l.07-.668a3.011 3.011 0 0 0-2.488-3.285l-4.328-.723a3.141 3.141 0 0 0-.602-.043 3.023 3.023 0 0 0-2.848 2.484l-.062.352-.383-.07-2.976-4.461A4.999 4.999 0 0 0 53.86 12Zm0 2h15.72c1.003 0 1.94.5 2.495 1.336l3.45 5.176 10.715 1.89A2.99 2.99 0 0 1 73 25.355V61c0 1.668-1.332 3-3 3H10c-1.668 0-3-1.332-3-3V24.5a2.99 2.99 0 0 1 2.605-2.973l7-.933c1.18-.157 2.247.386 2.864 1.293l.36.52 12.405-1.958 3.41-5.113A2.998 2.998 0 0 1 38.142 14Zm26.422 3.938 4.329.718c.53.09.886.559.828 1.098l-.051.465-6.32-1.114.062-.355a.987.987 0 0 1 1.153-.813ZM46 23c-9.93 0-18 8.07-18 18s8.07 18 18 18c8.2 0 15.113-5.508 17.281-13.016C65.902 45.836 68 43.652 68 41s-2.098-4.836-4.719-4.984C61.113 28.508 54.2 23 46 23Zm-26 1c-.55 0-1 .45-1 1s.45 1 1 1 1-.45 1-1-.45-1-1-1Zm-7 .5c-2.027 0-3.5 1.895-3.5 4s1.473 4 3.5 4 3.5-1.895 3.5-4-1.473-4-3.5-4Zm33 .5c8.848 0 16 7.152 16 16 0 8.848-7.152 16-16 16-8.848 0-16-7.152-16-16 0-8.848 7.152-16 16-16Zm-33 1.5c.73 0 1.5.793 1.5 2 0 1.207-.77 2-1.5 2s-1.5-.793-1.5-2c0-1.207.77-2 1.5-2Zm7 1.5c-.55 0-1 .45-1 1s.45 1 1 1 1-.45 1-1-.45-1-1-1Zm26 0c-7.168 0-13 5.832-13 13s5.832 13 13 13 13-5.832 13-13-5.832-13-13-13Zm0 2c6.086 0 11 4.914 11 11s-4.914 11-11 11-11-4.914-11-11 4.914-11 11-11Zm-26 2c-.55 0-1 .45-1 1s.45 1 1 1 1-.45 1-1-.45-1-1-1Zm0 4c-.55 0-1 .45-1 1s.45 1 1 1 1-.45 1-1-.45-1-1-1Zm43.746 2.105A2.97 2.97 0 0 1 66 41a2.97 2.97 0 0 1-2.254 2.895c.152-.942.254-1.907.254-2.895s-.102-1.953-.254-2.895ZM20 40c-.55 0-1 .45-1 1s.45 1 1 1 1-.45 1-1-.45-1-1-1Zm0 4c-.55 0-1 .45-1 1s.45 1 1 1 1-.45 1-1-.45-1-1-1Zm0 4c-.55 0-1 .45-1 1s.45 1 1 1 1-.45 1-1-.45-1-1-1Zm0 4c-.55 0-1 .45-1 1s.45 1 1 1 1-.45 1-1-.45-1-1-1Zm0 4c-.55 0-1 .45-1 1s.45 1 1 1 1-.45 1-1-.45-1-1-1Zm0 4c-.55 0-1 .45-1 1s.45 1 1 1 1-.45 1-1-.45-1-1-1Z"/></svg>