<svg id='trash_24' width='24' height='24' viewBox='0 0 24 24' xmlns='http://www.w3.org/2000/svg' xmlns:xlink='http://www.w3.org/1999/xlink'><rect width='24' height='24' stroke='none' fill='#000000' opacity='0'/>


<g transform="matrix(1 0 0 1 12 12)" >
<g style="" >
<g transform="matrix(1 0 0 1 0 0)" >
<path style="stroke: none; stroke-width: 2; stroke-dasharray: none; stroke-linecap: round; stroke-dashoffset: 0; stroke-linejoin: round; stroke-miterlimit: 4; fill: none; fill-rule: nonzero; opacity: 1;" transform=" translate(-12, -12)" d="M 0 0 L 24 0 L 24 24 L 0 24 z" stroke-linecap="round" />
</g>
<g transform="matrix(1 0 0 1 0 -5)" >
<line style="stroke: rgb(33,33,33); stroke-width: 2; stroke-dasharray: none; stroke-linecap: round; stroke-dashoffset: 0; stroke-linejoin: round; stroke-miterlimit: 4; fill: none; fill-rule: nonzero; opacity: 1;" x1="-8" y1="0" x2="8" y2="0" />
</g>
<g transform="matrix(1 0 0 1 -2 2)" >
<line style="stroke: rgb(33,33,33); stroke-width: 2; stroke-dasharray: none; stroke-linecap: round; stroke-dashoffset: 0; stroke-linejoin: round; stroke-miterlimit: 4; fill: none; fill-rule: nonzero; opacity: 1;" x1="0" y1="-3" x2="0" y2="3" />
</g>
<g transform="matrix(1 0 0 1 2 2)" >
<line style="stroke: rgb(33,33,33); stroke-width: 2; stroke-dasharray: none; stroke-linecap: round; stroke-dashoffset: 0; stroke-linejoin: round; stroke-miterlimit: 4; fill: none; fill-rule: nonzero; opacity: 1;" x1="0" y1="-3" x2="0" y2="3" />
</g>
<g transform="matrix(1 0 0 1 0 2)" >
<path style="stroke: rgb(33,33,33); stroke-width: 2; stroke-dasharray: none; stroke-linecap: round; stroke-dashoffset: 0; stroke-linejoin: round; stroke-miterlimit: 4; fill: none; fill-rule: nonzero; opacity: 1;" transform=" translate(-12, -14)" d="M 5 7 L 6 19 C 6 20.104569499661586 6.8954305003384135 21 8 21 L 16 21 C 17.104569499661586 21 18 20.104569499661586 18 19 L 19 7" stroke-linecap="round" />
</g>
<g transform="matrix(1 0 0 1 0 -7)" >
<path style="stroke: rgb(33,33,33); stroke-width: 2; stroke-dasharray: none; stroke-linecap: round; stroke-dashoffset: 0; stroke-linejoin: round; stroke-miterlimit: 4; fill: none; fill-rule: nonzero; opacity: 1;" transform=" translate(-12, -5)" d="M 9 7 L 9 4 C 9 3.4477152501692068 9.447715250169207 3 10 3 L 14 3 C 14.552284749830793 3 15 3.4477152501692063 15 4 L 15 7" stroke-linecap="round" />
</g>
</g>
</g>
</svg>