<svg width='24' height='24' viewBox='0 0 24 24' xmlns='http://www.w3.org/2000/svg' xmlns:xlink='http://www.w3.org/1999/xlink'><rect width='24' height='24' stroke='none' fill='#000000' opacity='0'/>


<g transform="matrix(0.42 0 0 0.42 12 12)" >
<g style="" >
<g transform="matrix(1 0 0 1 -1 0)" >
<path style="stroke: none; stroke-width: 1; stroke-dasharray: none; stroke-linecap: butt; stroke-dashoffset: 0; stroke-linejoin: miter; stroke-miterlimit: 4; fill: rgb(224,224,224); fill-rule: nonzero; opacity: 1;" transform=" translate(-23, -24)" d="M 7.464 29 C 6.428000000000001 29 5.472 29.428 4.838000000000001 30.178 C 4.210000000000001 30.92 3.919000000000001 31.855 4.019000000000001 32.812 C 4.119000000000001 33.769999999999996 4.590000000000001 34.622 5.347000000000001 35.211 C 5.560000000000001 35.364 13.739 41.123 13.740000000000002 41.123 C 16.435 43.004 19.601 44 22.893 44 L 29 44 C 33.963 44 38 39.962 38 35 L 38 32.51 C 38 30.674999999999997 38.241 28.843999999999998 38.717 27.070999999999998 L 41.893 15.226999999999999 C 42.112 14.480999999999998 41.989 13.708999999999998 41.563 13.086999999999998 C 41.131 12.455999999999998 40.463 12.070999999999998 39.68 12.002999999999998 L 39.68 12.002999999999998 C 38.51 11.907999999999998 37.424 12.694999999999999 37.076 13.884999999999998 L 34.833 21.29 C 34.684999999999995 21.779 34.184999999999995 22.076999999999998 33.687999999999995 21.982 C 33.184999999999995 21.886 32.836 21.425 32.879 20.916 L 33.982 7.824 C 34.089 6.588 33.364 5.449 32.256 5.114 C 31.503 4.886 30.738 4.999 30.103 5.43 C 29.474 5.856 29.076 6.531 29.01 7.282 L 27.871000000000002 20.088 C 27.825 20.605 27.393 21 26.875 21 C 26.871 21 26.867 21 26.862 21 C 26.34 20.994 25.909999999999997 20.586 25.877 20.064 L 24.995 6.339 C 24.95 5.648000000000001 24.639 5.025 24.119 4.5840000000000005 C 23.602 4.146000000000001 22.931 3.9440000000000004 22.25 4.013000000000001 C 20.927 4.1450000000000005 19.925 5.416 20.017 6.846000000000001 L 20.873 19.935000000000002 C 20.906000000000002 20.445000000000004 20.55 20.898000000000003 20.047 20.986 C 19.551000000000002 21.07 19.056 20.769000000000002 18.914 20.277 L 15.958 10 C 15.567 8.638 14.219 7.772 12.941 8.063 C 12.263 8.22 11.696000000000002 8.635 11.345 9.232000000000001 C 10.993 9.829 10.905000000000001 10.525 11.096 11.190000000000001 L 14.777000000000001 26.456000000000003 C 14.925 27.069 15 27.7 15 28.332 L 15 31 C 15 31.356 14.811 31.687 14.502 31.865 C 14.192 32.044 13.813 32.045 13.503 31.866999999999997 C 11.496 30.717999999999996 9.224 29.429 8.963000000000001 29.304 C 8.507000000000001 29.108999999999998 8.006 29.003999999999998 7.492000000000001 29 C 7.482 29 7.474 29 7.464 29 z" stroke-linecap="round" />
</g>
<g transform="matrix(1 0 0 1 -1 0)" >
<path style="stroke: none; stroke-width: 1; stroke-dasharray: none; stroke-linecap: butt; stroke-dashoffset: 0; stroke-linejoin: miter; stroke-miterlimit: 4; fill: rgb(55,71,79); fill-rule: nonzero; opacity: 1;" transform=" translate(-23, -24)" d="M 22.515 4.999 C 23.308 4.999 23.946 5.603 23.997 6.403 L 24.879 20.128 C 24.946 21.171 25.805 21.987000000000002 26.85 22 C 26.858 22 26.867 22 26.875 22 C 27.909 22 28.775 21.21 28.867 20.177 L 30.006 7.369 C 30.073 6.601 30.729 6 31.5 6 C 31.654 6 31.811 6.024 31.966 6.071 C 32.613 6.2669999999999995 33.051 6.981999999999999 32.984 7.74 L 31.882 20.832 C 31.796000000000003 21.852 32.494 22.772000000000002 33.499 22.964000000000002 C 33.626 22.989 33.752 23 33.876 23 C 34.742 23 35.528999999999996 22.436 35.788999999999994 21.58 L 38.03399999999999 14.166999999999998 C 38.23299999999999 13.487999999999998 38.84199999999999 12.994999999999997 39.480999999999995 12.994999999999997 C 39.517999999999994 12.994999999999997 39.55499999999999 12.996999999999998 39.592999999999996 12.999999999999998 C 40.239 13.055999999999997 40.586999999999996 13.431999999999999 40.736999999999995 13.651999999999997 C 40.992999999999995 14.025999999999998 41.06699999999999 14.489999999999997 40.92699999999999 14.968999999999998 L 37.75099999999999 26.812999999999995 C 37.253 28.67 37 30.587 37 32.51 L 37 35 C 37 39.411 33.411 43 29 43 L 22.893 43 C 19.807000000000002 43 16.838 42.066 14.314 40.305 C 11.137 38.068 6.376 34.715 5.9350000000000005 34.400999999999996 C 5.41 33.982 5.083 33.382 5.013000000000001 32.708 C 4.942000000000001 32.025 5.151000000000001 31.355999999999998 5.601000000000001 30.823999999999998 C 6.05 30.293 6.712 30 7.485 30 C 7.845000000000001 30.003 8.212 30.077 8.547 30.215 C 8.932 30.415 11.086 31.636 13.006 32.735 C 13.314 32.912 13.657 33 14 33 C 14.346 33 14.693 32.91 15.003 32.73 C 15.62 32.373 16 31.713 16 31 L 16 28.332 C 16 27.622 15.916 26.913 15.749 26.223 L 12.08 10.998 C 12.073 10.969999999999999 12.066 10.942 12.058 10.915 C 11.943 10.514999999999999 11.996 10.097999999999999 12.206999999999999 9.738999999999999 C 12.418 9.380999999999998 12.758 9.132 13.165999999999999 9.036999999999999 C 13.261 9.014999999999999 13.357 9.004 13.453 9.004 C 14.123999999999999 9.004 14.786999999999999 9.551 14.995999999999999 10.276 L 17.951999999999998 20.552999999999997 C 18.201999999999998 21.421999999999997 18.996 21.999999999999996 19.872 21.999999999999996 C 19.986 21.999999999999996 20.101 21.989999999999995 20.217 21.969999999999995 C 21.223 21.793999999999997 21.936 20.888999999999996 21.869 19.868999999999996 L 21.015 6.78 C 20.958000000000002 5.897 21.57 5.086 22.351 5.007000000000001 C 22.406 5.002 22.461 4.999 22.515 4.999 L 22.515 4.999 M 22.515 2.999 C 22.395 2.999 22.274 3.005 22.151 3.017 C 20.244 3.2079999999999997 18.896 4.996 19.019 6.9079999999999995 L 19.875 20 L 16.919 9.723 C 16.465 8.146 15.030000000000001 7.004000000000001 13.454 7.004000000000001 C 13.21 7.004000000000001 12.963000000000001 7.0310000000000015 12.715 7.089000000000001 C 10.746 7.545000000000002 9.585 9.549000000000001 10.135 11.467000000000002 L 13.804 26.692 C 13.935 27.229 14 27.779 14 28.332 L 14 31 C 14 31 9.67 28.52 9.375 28.394 C 8.775 28.136 8.135 28.005 7.5 28 C 7.488 28 7.476 28 7.464 28 C 6.19 28 4.939 28.509 4.074 29.533 C 2.388 31.526 2.746 34.454 4.733 36 C 4.798 36.051 13.163 41.94 13.163 41.94 C 16.017 43.931999999999995 19.413 45 22.893 45 L 29 45 C 34.522999999999996 45 39 40.522999999999996 39 35 L 39 32.51 C 39 30.761 39.229 29.019 39.682 27.33 L 42.858000000000004 15.485999999999999 C 43.469 13.402999999999999 42.054 11.204999999999998 39.765 11.006999999999998 C 39.67 10.998999999999999 39.575 10.994999999999997 39.481 10.994999999999997 C 37.931000000000004 10.994999999999997 36.559000000000005 12.091999999999997 36.115 13.602999999999998 L 33.875 21 L 34.977 7.9079999999999995 C 35.122 6.249 34.138999999999996 4.638999999999999 32.544999999999995 4.157 C 32.193 4.05 31.842 4 31.5 4 C 29.711 4 28.173000000000002 5.371 28.014 7.195 L 26.875 20 L 25.993 6.275 C 25.873 4.426 24.366 2.999 22.515 2.999 L 22.515 2.999 z" stroke-linecap="round" />
</g>
</g>
</g>
</svg>