<svg id='Interface_Lighting_Brightness_4_24' width='24' height='24' viewBox='0 0 24 24' xmlns='http://www.w3.org/2000/svg' xmlns:xlink='http://www.w3.org/1999/xlink'><rect width='24' height='24' stroke='none' fill='#000000' opacity='0'/>


<g transform="matrix(1.43 0 0 1.43 12 12)" >
<g style="" >
<g transform="matrix(1 0 0 1 0 0)" >
<path style="stroke: rgb(0,0,0); stroke-width: 1; stroke-dasharray: none; stroke-linecap: round; stroke-dashoffset: 0; stroke-linejoin: round; stroke-miterlimit: 4; fill: none; fill-rule: nonzero; opacity: 1;" transform=" translate(-7, -7)" d="M 7 10.25 C 8.79493 10.25 10.25 8.79493 10.25 7 C 10.25 5.20507 8.79493 3.75 7 3.75 C 5.20507 3.75 3.75 5.20507 3.75 7 C 3.75 8.79493 5.20507 10.25 7 10.25 Z" stroke-linecap="round" />
</g>
<g transform="matrix(1 0 0 1 0 -6)" >
<path style="stroke: rgb(0,0,0); stroke-width: 1; stroke-dasharray: none; stroke-linecap: round; stroke-dashoffset: 0; stroke-linejoin: round; stroke-miterlimit: 4; fill: none; fill-rule: nonzero; opacity: 1;" transform=" translate(-7, -1)" d="M 7 0.5 L 7 1.5" stroke-linecap="round" />
</g>
<g transform="matrix(1 0 0 1 0 6)" >
<path style="stroke: rgb(0,0,0); stroke-width: 1; stroke-dasharray: none; stroke-linecap: round; stroke-dashoffset: 0; stroke-linejoin: round; stroke-miterlimit: 4; fill: none; fill-rule: nonzero; opacity: 1;" transform=" translate(-7, -13)" d="M 7 12.5 L 7 13.5" stroke-linecap="round" />
</g>
<g transform="matrix(1 0 0 1 6 0)" >
<path style="stroke: rgb(0,0,0); stroke-width: 1; stroke-dasharray: none; stroke-linecap: round; stroke-dashoffset: 0; stroke-linejoin: round; stroke-miterlimit: 4; fill: none; fill-rule: nonzero; opacity: 1;" transform=" translate(-13, -7)" d="M 13.5 7 L 12.5 7" stroke-linecap="round" />
</g>
<g transform="matrix(1 0 0 1 -6 0)" >
<path style="stroke: rgb(0,0,0); stroke-width: 1; stroke-dasharray: none; stroke-linecap: round; stroke-dashoffset: 0; stroke-linejoin: round; stroke-miterlimit: 4; fill: none; fill-rule: nonzero; opacity: 1;" transform=" translate(-1, -7)" d="M 1.5 7 L 0.5 7" stroke-linecap="round" />
</g>
<g transform="matrix(1 0 0 1 4.25 -4.25)" >
<path style="stroke: rgb(0,0,0); stroke-width: 1; stroke-dasharray: none; stroke-linecap: round; stroke-dashoffset: 0; stroke-linejoin: round; stroke-miterlimit: 4; fill: none; fill-rule: nonzero; opacity: 1;" transform=" translate(-11.25, -2.75)" d="M 11.6 2.3999 L 10.89 3.1099" stroke-linecap="round" />
</g>
<g transform="matrix(1 0 0 1 -4.25 4.25)" >
<path style="stroke: rgb(0,0,0); stroke-width: 1; stroke-dasharray: none; stroke-linecap: round; stroke-dashoffset: 0; stroke-linejoin: round; stroke-miterlimit: 4; fill: none; fill-rule: nonzero; opacity: 1;" transform=" translate(-2.75, -11.25)" d="M 3.10999 10.8901 L 2.39999 11.6001" stroke-linecap="round" />
</g>
<g transform="matrix(1 0 0 1 4.25 4.25)" >
<path style="stroke: rgb(0,0,0); stroke-width: 1; stroke-dasharray: none; stroke-linecap: round; stroke-dashoffset: 0; stroke-linejoin: round; stroke-miterlimit: 4; fill: none; fill-rule: nonzero; opacity: 1;" transform=" translate(-11.25, -11.25)" d="M 11.6 11.6001 L 10.89 10.8901" stroke-linecap="round" />
</g>
<g transform="matrix(1 0 0 1 -4.25 -4.25)" >
<path style="stroke: rgb(0,0,0); stroke-width: 1; stroke-dasharray: none; stroke-linecap: round; stroke-dashoffset: 0; stroke-linejoin: round; stroke-miterlimit: 4; fill: none; fill-rule: nonzero; opacity: 1;" transform=" translate(-2.75, -2.75)" d="M 3.10999 3.1099 L 2.39999 2.3999" stroke-linecap="round" />
</g>
</g>
</g>
</svg>