<svg width="24" height="24" xmlns="http://www.w3.org/2000/svg"><g><path style="stroke:#000;stroke-width:1;stroke-dasharray:none;stroke-linecap:round;stroke-dashoffset:0;stroke-linejoin:round;stroke-miterlimit:4;fill:none;fill-rule:nonzero;opacity:1" transform="matrix(.83 0 0 .83 2.04 2.04)" d="m16.5.5-1 4h-7L7 .5M14.192 22.169a2.47 2.47 0 0 1-4.384 0L4.556 12.07a2 2 0 0 1 .13-2.061L8.5 4.5h7l3.814 5.509a2 2 0 0 1 .13 2.061ZM12 12.5v11" stroke-linecap="round"/><path style="stroke:#000;stroke-width:1;stroke-dasharray:none;stroke-linecap:round;stroke-dashoffset:0;stroke-linejoin:round;stroke-miterlimit:4;fill:none;fill-rule:nonzero;opacity:1" transform="matrix(.83 0 0 .83 2.04 2.04)" d="M10 10.5a2 2 0 1 0 4 0 2 2 0 0 0-4 0Z" stroke-linecap="round"/></g></svg>