<svg width="24" height="24" xmlns="http://www.w3.org/2000/svg"><path style="stroke:none;stroke-width:1;stroke-dasharray:none;stroke-linecap:butt;stroke-dashoffset:0;stroke-linejoin:miter;stroke-miterlimit:4;fill:#fff;fill-rule:nonzero;opacity:1" transform="matrix(.16 0 0 .16 1.712 1.728)" d="M124.5 121.4H44.1c-1.7 0-3 1.3-3 3s1.3 3 3 3h80.4c1.7 0 3-1.3 3-3s-1.3-3-3-3zm-123.4 3c0 1.7 1.3 3 3 3h20c1.7 0 3-1.3 3-3s-1.3-3-3-3h-20c-1.6 0-3 1.4-3 3zm41.6-22 60.8-60.8 9.9-9.9c3.4-3.4 5.3-7.9 5.3-12.7 0-4.8-1.9-9.3-5.3-12.7C110 2.9 105.5 1 100.7 1 95.9 1 91.4 2.9 88 6.3l-9.8 9.8L17.3 77c-.5.5-.8 1.1-.8 1.7L13 102.4l-2.7 2.7c-1.1 1.1-1.3 3-.3 4.2.6.7 1.4 1 2.3 1 .8 0 1.5-.3 2.1-.9l2.8-2.8 23.8-3.4c.7 0 1.3-.3 1.7-.8zm49.5-91.9c2.3-2.3 5.3-3.5 8.5-3.5s6.2 1.2 8.5 3.5 3.5 5.3 3.5 8.5-1.2 6.2-3.5 8.5l-6.6 6.6c-3.4-7.5-9.4-13.6-16.9-17l6.5-6.6zM81 21.7c10.3 3.6 15.6 10.9 17.1 16.8L42.7 93.9c-3-7.8-9.2-13.9-17-17L81 21.7zm-61.6 78.6L22 82c7.5 2.4 13.4 8.2 15.7 15.7l-18.3 2.6z"/></svg>