<svg id='Save_24' width='24' height='24' viewBox='0 0 24 24' xmlns='http://www.w3.org/2000/svg' xmlns:xlink='http://www.w3.org/1999/xlink'><rect width='24' height='24' stroke='none' fill='#000000' opacity='0'/>
<g transform="matrix(0.42 0 0 0.42 12 12)" >
<path style="stroke: none; stroke-width: 1; stroke-dasharray: none; stroke-linecap: butt; stroke-dashoffset: 0; stroke-linejoin: miter; stroke-miterlimit: 4; fill: rgb(0,0,0); fill-rule: nonzero; opacity: 1;" transform=" translate(-32, -32)" d="M 8 8 L 8 56 L 56 56 L 56 13 L 51 8 L 46 8 L 46 20 C 46 21.105 45.105 22 44 22 L 24 22 C 22.895 22 22 21.105 22 20 L 22 8 L 8 8 z M 34 8 L 34 19 L 40 19 L 40 8 L 34 8 z M 19 28 L 45 28 C 46.105 28 47 28.895 47 30 L 47 50 C 47 51.105 46.105 52 45 52 L 19 52 C 17.895 52 17 51.105 17 50 L 17 30 C 17 28.895 17.895 28 19 28 z M 11 49 L 14 49 L 14 52 L 11 52 L 11 49 z M 50 49 L 53 49 L 53 52 L 50 52 L 50 49 z" stroke-linecap="round" />
</g>
</svg>