<svg id='Design_Tool_Stamp_24' width='24' height='24' viewBox='0 0 24 24' xmlns='http://www.w3.org/2000/svg' xmlns:xlink='http://www.w3.org/1999/xlink'><rect width='24' height='24' stroke='none' fill='#000000' opacity='0'/>


<g transform="matrix(0.83 0 0 0.83 12 12)" >
<g style="" >
<g transform="matrix(1 0 0 1 -0.02 9.75)" >
<path style="stroke: rgb(0,0,0); stroke-width: 1.5; stroke-dasharray: none; stroke-linecap: round; stroke-dashoffset: 0; stroke-linejoin: round; stroke-miterlimit: 4; fill: none; fill-rule: nonzero; opacity: 1;" transform=" translate(-11.98, -21.75)" d="M 21.68 21.75 C 21.68001173786735 22.575312960312125 21.013301222528245 23.24559833096136 20.188 23.25 L 3.78 23.25 C 2.954698777471756 23.24559833096136 2.2879882621326493 22.575312960312125 2.2879999999999994 21.75 L 2.288 20.25 L 21.68 20.25 Z" stroke-linecap="round" />
</g>
<g transform="matrix(1 0 0 1 0 -1.49)" >
<path style="stroke: rgb(0,0,0); stroke-width: 1.5; stroke-dasharray: none; stroke-linecap: round; stroke-dashoffset: 0; stroke-linejoin: round; stroke-miterlimit: 4; fill: none; fill-rule: nonzero; opacity: 1;" transform=" translate(-12, -10.51)" d="M 19.442 14.25 L 16.459 14.25 C 14.513 14.25 13.93 12.978 13.93 11.511 C 13.93 9.065 16.362 7.582999999999999 16.362 5.151999999999999 C 16.362 2.7340973652407854 14.401902634759212 0.7739999999999991 11.983999999999998 0.7739999999999991 C 9.566097365240784 0.7739999999999991 7.605999999999998 2.734097365240785 7.605999999999998 5.151999999999998 C 7.605999999999998 7.582999999999999 10.037999999999998 9.065 10.037999999999998 11.511 C 10.037999999999998 12.978 9.454999999999998 14.25 7.508999999999999 14.25 L 3.78 14.25 C 0.17999999999999972 14.25 0.1729999999999996 20.25 1.7689999999999997 20.25 L 22.2 20.25 C 23.752 20.25 24.132 14.25 19.442 14.25 Z" stroke-linecap="round" />
</g>
</g>
</g>
</svg>