<svg id='Text_24' width='24' height='24' viewBox='0 0 24 24' xmlns='http://www.w3.org/2000/svg' xmlns:xlink='http://www.w3.org/1999/xlink'><rect width='24' height='24' stroke='none' fill='#000000' opacity='0'/>


<g transform="matrix(0.91 0 0 0.91 12 12)" >
<path style="stroke: none; stroke-width: 1; stroke-dasharray: none; stroke-linecap: butt; stroke-dashoffset: 0; stroke-linejoin: miter; stroke-miterlimit: 4; fill: rgb(0,0,0); fill-rule: nonzero; opacity: 1;" transform=" translate(-15, -15)" d="M 14.970703 3.9726562 C 14.875119641146364 3.974943773702291 14.779823309233981 3.9840818028531615 14.685547000000001 3.999999999999999 L 7 4 L 6 4 C 5.448 4 5 4.448 5 5 L 5 8 C 5 8.552 5.448 9 6 9 L 7 9 C 7.552 9 8 8.552 8 8 L 8 7 L 13 7 L 13 23 L 12 23 C 11.448 23 11 23.448 11 24 L 11 25 C 11 25.552 11.448 26 12 26 L 14.675781 26 C 14.890488268619176 26.03526902510927 15.109511731380824 26.03526902510927 15.324219 26 L 18 26 C 18.552 26 19 25.552 19 25 L 19 24 C 19 23.448 18.552 23 18 23 L 17 23 L 17 7 L 22 7 L 22 8 C 22 8.552 22.448 9 23 9 L 24 9 C 24.552 9 25 8.552 25 8 L 25 5 C 25 4.448 24.552 4 24 4 L 23 4 L 15.320312 4 C 15.204800937765164 3.9806676545200195 15.087815122994268 3.9715178994452573 14.970703 3.9726562 z" stroke-linecap="round" />
</g>
</svg>