<svg id='Undo_Arrow_24' width='24' height='24' viewBox='0 0 24 24' xmlns='http://www.w3.org/2000/svg' xmlns:xlink='http://www.w3.org/1999/xlink'><rect width='24' height='24' stroke='none' fill='var(--dot-color)' opacity='0'/>
<g transform="matrix(0.87 0 0 0.87 12 12)" >
<path style="stroke: none; stroke-width: 1; stroke-dasharray: none; stroke-linecap: butt; stroke-dashoffset: 0; stroke-linejoin: miter; stroke-miterlimit: 4; fill:"var(--dot-color)"; fill-rule: nonzero; opacity: 1;" transform=" translate(-11.57, -12)" d="M 13 2 C 8.618302644687454 2.0055817361911927 4.748647663563071 4.858100356214001 3.4469999999999974 9.042000000000007 L 1.866 6.305 L 0.13400000000000012 7.305 L 3.6340000000000003 13.366 L 9.7 9.866 L 8.7 8.134 L 5.231999999999999 10.134 C 6.206175121757851 6.072692614893246 10.140617798819061 3.444177734573789 14.265486239361069 4.098925924640124 C 18.390354679903076 4.753674114706459 21.31745683957633 8.471335019358408 20.98611715229203 12.634680892067632 C 20.654777465007733 16.798026764776857 17.17650569756098 20.005916283903765 12.999999999999996 20 L 13 22 C 18.522847498307932 22 23 17.522847498307932 23 12 C 23 6.477152501692066 18.522847498307932 2 13 2 z" stroke-linecap="round" />
</g>
</svg>